REM DIRINDEX 1\2\4,1\2\5,1\3\6,1\3\7,1\3\8
REM DIRNAME folder01,folder02,folder03,folder04,folder05,folder06,folder07,folder08
TITLE ""
FILE "LV4_079_WORDS.mp3" MP3
  TRACK 01 AUDIO
    TITLE "0:"
    INDEX 01 00:00:00
  TRACK 02 AUDIO
    TITLE "6:cjc094_2785"
    INDEX 01 00:00:03
  TRACK 03 AUDIO
    TITLE "0:"
    INDEX 01 00:01:48
  TRACK 04 AUDIO
    TITLE "7:cjc094_2786"
    INDEX 01 00:02:18
  TRACK 05 AUDIO
    TITLE "0:"
    INDEX 01 00:03:33
  TRACK 06 AUDIO
    TITLE "8:cjc094_2787"
    INDEX 01 00:03:49
  TRACK 07 AUDIO
    TITLE "0:"
    INDEX 01 00:05:30
  TRACK 08 AUDIO
    TITLE "7:cjc094_2788"
    INDEX 01 00:06:04
  TRACK 09 AUDIO
    TITLE "0:"
    INDEX 01 00:07:05
  TRACK 10 AUDIO
    TITLE "8:cjc094_2789"
    INDEX 01 00:07:19
  TRACK 11 AUDIO
    TITLE "0:"
    INDEX 01 00:10:27
  TRACK 12 AUDIO
    TITLE "7:cjc094_2790"
    INDEX 01 00:11:01
  TRACK 13 AUDIO
    TITLE "0:"
    INDEX 01 00:12:05
  TRACK 14 AUDIO
    TITLE "8:cjc094_2791"
    INDEX 01 00:12:18
  TRACK 15 AUDIO
    TITLE "0:"
    INDEX 01 00:14:54
  TRACK 16 AUDIO
    TITLE "7:cjc094_2792"
    INDEX 01 00:15:25
  TRACK 17 AUDIO
    TITLE "0:"
    INDEX 01 00:16:26
  TRACK 18 AUDIO
    TITLE "8:cjc094_2793"
    INDEX 01 00:16:38
  TRACK 19 AUDIO
    TITLE "0:"
    INDEX 01 00:17:43
  TRACK 20 AUDIO
    TITLE "7:cjc094_2794"
    INDEX 01 00:18:05
  TRACK 21 AUDIO
    TITLE "0:"
    INDEX 01 00:19:03
  TRACK 22 AUDIO
    TITLE "8:cjc094_2795"
    INDEX 01 00:19:15
  TRACK 23 AUDIO
    TITLE "0:"
    INDEX 01 00:20:45
  TRACK 24 AUDIO
    TITLE "7:cjc094_2796"
    INDEX 01 00:21:17
  TRACK 25 AUDIO
    TITLE "0:"
    INDEX 01 00:22:38
  TRACK 26 AUDIO
    TITLE "8:cjc094_2797"
    INDEX 01 00:22:50
  TRACK 27 AUDIO
    TITLE "0:"
    INDEX 01 00:24:06
  TRACK 28 AUDIO
    TITLE "7:cjc094_2798"
    INDEX 01 00:24:53
  TRACK 29 AUDIO
    TITLE "0:"
    INDEX 01 00:25:58
  TRACK 30 AUDIO
    TITLE "8:cjc094_2799"
    INDEX 01 00:25:68
  TRACK 31 AUDIO
    TITLE "0:"
    INDEX 01 00:28:00
  TRACK 32 AUDIO
    TITLE "7:cjc094_2800"
    INDEX 01 00:28:49
  TRACK 33 AUDIO
    TITLE "0:"
    INDEX 01 00:29:56
  TRACK 34 AUDIO
    TITLE "8:cjc094_2801"
    INDEX 01 00:29:74
  TRACK 35 AUDIO
    TITLE "0:"
    INDEX 01 00:31:71
  TRACK 36 AUDIO
    TITLE "7:cjc094_2802"
    INDEX 01 00:32:39
  TRACK 37 AUDIO
    TITLE "0:"
    INDEX 01 00:33:48
  TRACK 38 AUDIO
    TITLE "8:cjc094_2803"
    INDEX 01 00:33:62
  TRACK 39 AUDIO
    TITLE "0:"
    INDEX 01 00:35:19
  TRACK 40 AUDIO
    TITLE "7:cjc094_2804"
    INDEX 01 00:35:64
  TRACK 41 AUDIO
    TITLE "0:"
    INDEX 01 00:36:66
  TRACK 42 AUDIO
    TITLE "8:cjc094_2805"
    INDEX 01 00:37:01
  TRACK 43 AUDIO
    TITLE "0:"
    INDEX 01 00:39:35
  TRACK 44 AUDIO
    TITLE "7:cjc094_2806"
    INDEX 01 00:40:07
  TRACK 45 AUDIO
    TITLE "0:"
    INDEX 01 00:41:26
  TRACK 46 AUDIO
    TITLE "8:cjc094_2807"
    INDEX 01 00:41:38
  TRACK 47 AUDIO
    TITLE "0:"
    INDEX 01 00:44:26
  TRACK 48 AUDIO
    TITLE "7:cjc094_2808"
    INDEX 01 00:45:02
  TRACK 49 AUDIO
    TITLE "0:"
    INDEX 01 00:46:09
  TRACK 50 AUDIO
    TITLE "8:cjc094_2809"
    INDEX 01 00:46:19
  TRACK 51 AUDIO
    TITLE "0:"
    INDEX 01 00:49:16
  TRACK 52 AUDIO
    TITLE "7:cjc094_2810"
    INDEX 01 00:49:69
  TRACK 53 AUDIO
    TITLE "0:"
    INDEX 01 00:50:74
  TRACK 54 AUDIO
    TITLE "8:cjc094_2811"
    INDEX 01 00:51:16
  TRACK 55 AUDIO
    TITLE "0:"
    INDEX 01 00:53:49
  TRACK 56 AUDIO
    TITLE "7:cjc094_2812"
    INDEX 01 00:54:21
  TRACK 57 AUDIO
    TITLE "0:"
    INDEX 01 00:55:18
  TRACK 58 AUDIO
    TITLE "8:cjc094_2813"
    INDEX 01 00:55:30
  TRACK 59 AUDIO
    TITLE "0:"
    INDEX 01 00:57:21
  TRACK 60 AUDIO
    TITLE "7:cjc094_2814"
    INDEX 01 00:57:70
  TRACK 61 AUDIO
    TITLE "0:"
    INDEX 01 00:58:73
  TRACK 62 AUDIO
    TITLE "8:cjc094_2815"
    INDEX 01 00:59:12
  TRACK 63 AUDIO
    TITLE "0:"
    INDEX 01 01:02:12
  TRACK 64 AUDIO
    TITLE "7:cjc094_2816"
    INDEX 01 01:02:61
  TRACK 65 AUDIO
    TITLE "0:"
    INDEX 01 01:03:63
  TRACK 66 AUDIO
    TITLE "8:cjc094_2817"
    INDEX 01 01:04:07
  TRACK 67 AUDIO
    TITLE "0:"
    INDEX 01 01:05:48
